<svg width="70" height="70" viewBox="0 0 70 70" fill="none" xmlns="http://www.w3.org/2000/svg">
<path d="M48.5165 21C41.6782 21 36.1339 22.948 36.1339 25.3514V32.6694C36.1339 32.8059 36.1567 32.941 36.1944 33.0743C36.7974 35.1942 42.0825 36.8522 48.5165 36.8522C54.9508 36.8522 60.2359 35.1942 60.8389 33.0743C60.8766 32.941 60.8994 32.8059 60.8994 32.6694V25.3514C60.8994 22.948 55.3554 21 48.5165 21ZM58.6904 25.9284C58.1682 26.3056 57.3934 26.6686 56.4494 26.9782C54.3116 27.6795 51.4943 28.0659 48.5165 28.0659C45.539 28.0659 42.7216 27.6795 40.5839 26.9782C39.6399 26.6686 38.8651 26.3056 38.3429 25.9284C37.9404 25.6378 37.8046 25.4199 37.782 25.3514C37.8046 25.2832 37.9404 25.0653 38.3429 24.7745C38.8651 24.3974 39.6399 24.0345 40.5839 23.7247C42.7216 23.0232 45.539 22.6369 48.5165 22.6369C51.4943 22.6369 54.3116 23.0232 56.4497 23.7247C57.3934 24.0345 58.1682 24.3974 58.6904 24.7745C59.0928 25.0653 59.2287 25.2832 59.2512 25.3514C59.2287 25.4196 59.0928 25.6378 58.6904 25.9284ZM54.1616 37.2247C52.4674 37.5304 50.5522 37.7067 48.5167 37.7067C46.4811 37.7067 44.5659 37.5304 42.8719 37.2247C38.8745 36.5033 36.1339 35.315 36.1339 33.6268V36.4983C34.6442 36.2752 33.0045 36.1515 31.2828 36.1515C24.4442 36.1515 18.8999 38.0995 18.8999 40.503V47.8212C18.8999 47.9577 18.9227 48.0925 18.9604 48.2258C19.5637 50.3457 24.8484 52.004 31.2828 52.004C33.0047 52.004 34.6445 51.885 36.1339 51.6704C36.3706 51.6363 36.6034 51.5999 36.8323 51.5608C37.1918 51.4999 37.5414 51.4332 37.8797 51.3608C41.0358 50.6881 43.2292 49.5467 43.6049 48.2258C43.6426 48.0925 43.6654 47.9577 43.6654 47.8212V48.8012C43.6654 50.164 41.879 51.201 39.0871 51.9298C38.6781 52.0368 38.2473 52.1367 37.7975 52.2305C37.5147 52.2893 37.2248 52.3456 36.9276 52.3992C36.6683 52.4458 36.4033 52.4893 36.1339 52.5299C34.6437 52.7541 33.0068 52.8809 31.2828 52.8809C29.2471 52.8809 27.3319 52.7048 25.638 52.3992C21.6405 51.6774 18.8999 50.4892 18.8999 48.801V56.1193C18.8999 56.2557 18.9227 56.3905 18.9604 56.5238C19.5637 58.6437 24.8487 60.302 31.2828 60.302C33.7209 60.302 35.9935 60.0638 37.9095 59.6527C41.0495 58.9788 43.2304 57.8405 43.6052 56.5238C43.6426 56.3905 43.6654 56.2557 43.6654 56.1193V57.099C43.6654 58.4565 41.8937 59.4904 39.1219 60.2187C38.4461 60.3962 37.711 60.5559 36.9276 60.6972C35.2334 61.0029 33.3182 61.1789 31.2828 61.1789C29.2473 61.1789 27.3322 61.0029 25.638 60.6972C21.6405 59.9755 18.9002 58.7872 18.9002 57.099V64.4173C18.9002 64.5537 18.923 64.6885 18.9606 64.8219C19.5637 66.9417 24.8487 68.6 31.2828 68.6C37.7171 68.6 43.0018 66.9417 43.6052 64.8219C43.6428 64.6885 43.6656 64.5537 43.6656 64.4173V61.3445C45.1553 61.5593 46.7948 61.678 48.517 61.678C54.9511 61.678 60.2361 60.02 60.8392 57.9002C60.8768 57.7668 60.8996 57.6317 60.8996 57.4953V50.1773C60.8996 51.8655 58.1593 53.0538 54.1618 53.7755C52.4676 54.0811 50.5525 54.2572 48.517 54.2572C46.793 54.2572 45.1559 54.1303 43.6656 53.9062V53.0694C45.1553 53.2839 46.7948 53.4029 48.517 53.4029C54.9511 53.4029 60.2361 51.7449 60.8392 49.625C60.8768 49.4915 60.8996 49.3566 60.8996 49.2202V41.9019C60.8996 43.5901 58.1593 44.7787 54.1618 45.5001C52.4676 45.8058 50.5525 45.9818 48.517 45.9818C46.793 45.9818 45.1559 45.855 43.6656 45.6308V44.794C45.1553 45.0088 46.7951 45.1275 48.517 45.1275C54.9511 45.1275 60.2361 43.4695 60.8394 41.3497C60.8771 41.2163 60.8999 41.0812 60.8999 40.9448V33.6268C60.8994 35.315 58.159 36.5033 54.1616 37.2247ZM41.4561 41.0799C40.9339 41.4572 40.1592 41.8202 39.2154 42.1297C38.6011 42.3312 37.9302 42.5067 37.2159 42.6546C36.9554 42.7085 36.6888 42.7588 36.4172 42.8051C36.3235 42.8212 36.229 42.8369 36.1339 42.8519C34.6337 43.091 32.9845 43.2175 31.2825 43.2175C28.305 43.2175 25.4876 42.8311 23.3496 42.1297C22.4059 41.8202 21.631 41.457 21.1089 41.0799C20.7064 40.7894 20.5705 40.5712 20.548 40.503C20.5705 40.4345 20.7064 40.2166 21.1089 39.926C21.631 39.5488 22.4059 39.1858 23.3496 38.8762C25.4876 38.1748 28.305 37.7885 31.2825 37.7885C32.9845 37.7885 34.6337 37.915 36.1339 38.154C37.2586 38.3331 38.2995 38.5758 39.2154 38.8762C40.1592 39.1858 40.9339 39.5488 41.4561 39.9257C41.8588 40.2166 41.9945 40.4345 42.017 40.503C41.9945 40.5714 41.8588 40.7894 41.4561 41.0799Z" fill="#00384D"/>
<path d="M52.6572 2.45502L40.6167 3.91992C40.5267 3.93102 40.4415 3.96746 40.3709 4.02509C40.3003 4.08271 40.2472 4.15919 40.2175 4.24583C40.1879 4.33247 40.183 4.42578 40.2033 4.51512C40.2236 4.60446 40.2683 4.68624 40.3324 4.75114L43.9176 8.37084L30.2568 22.1689L24.1019 15.9613C24.0123 15.8705 23.9058 15.7984 23.7886 15.7493C23.6714 15.7001 23.5457 15.6748 23.4188 15.6748C23.2919 15.6748 23.1663 15.7001 23.049 15.7493C22.9318 15.7984 22.8254 15.8705 22.7358 15.9613L3.29015 35.6082C3.20029 35.7001 3.1499 35.824 3.1499 35.9532C3.1499 36.0823 3.20029 36.2063 3.29015 36.2981L6.01028 39.0577C6.19684 39.2477 6.50676 39.2477 6.69332 39.0577L23.4188 22.1704L29.5662 28.3795C29.9468 28.7579 30.5592 28.7579 30.9323 28.3795L47.3388 11.8203L50.9226 15.4416C50.9866 15.5069 51.0676 15.5526 51.1562 15.5735C51.2448 15.5943 51.3375 15.5894 51.4235 15.5594C51.5095 15.5294 51.5854 15.4755 51.6423 15.4038C51.6993 15.3321 51.7351 15.2457 51.7455 15.1544L53.1958 2.99296C53.2054 2.9195 53.198 2.8448 53.1742 2.77471C53.1504 2.70462 53.1109 2.64104 53.0588 2.58894C53.0066 2.53684 52.9432 2.49764 52.8736 2.47441C52.8039 2.45118 52.7299 2.44454 52.6572 2.45502Z" fill="#00384D"/>
</svg>
